<mxfile host="65bd71144e">
    <diagram id="KUEobTJNzFjchIPSe8lg" name="Page-1">
        <mxGraphModel dx="1006" dy="458" grid="1" gridSize="10" guides="1" tooltips="1" connect="1" arrows="1" fold="1" page="1" pageScale="1" pageWidth="1654" pageHeight="1169" math="0" shadow="0">
            <root>
                <mxCell id="0"/>
                <mxCell id="1" parent="0"/>
                <mxCell id="6" value="" style="edgeStyle=entityRelationEdgeStyle;html=1;" parent="1" source="2" target="3" edge="1">
                    <mxGeometry relative="1" as="geometry"/>
                </mxCell>
                <mxCell id="11" value="" style="edgeStyle=none;html=1;entryX=0;entryY=0.5;entryDx=0;entryDy=0;exitX=1;exitY=0.5;exitDx=0;exitDy=0;" edge="1" parent="1" source="10" target="2">
                    <mxGeometry relative="1" as="geometry">
                        <mxPoint x="140" y="350" as="sourcePoint"/>
                    </mxGeometry>
                </mxCell>
                <mxCell id="2" value="&lt;div&gt;CarFactory interface&lt;/div&gt;&lt;div&gt;?&lt;/div&gt;&lt;div&gt;------------------&lt;/div&gt;&lt;div&gt;has 2 behaviours:&lt;/div&gt;&lt;div&gt;MakeSedan() Sedan&lt;/div&gt;&lt;div&gt;MakeSUV() SUV&lt;/div&gt;" style="rounded=0;whiteSpace=wrap;html=1;" parent="1" vertex="1">
                    <mxGeometry x="210" y="190" width="120" height="100" as="geometry"/>
                </mxCell>
                <mxCell id="14" value="" style="html=1;exitX=1;exitY=0.5;exitDx=0;exitDy=0;" edge="1" parent="1" source="3" target="13">
                    <mxGeometry relative="1" as="geometry"/>
                </mxCell>
                <mxCell id="17" style="html=1;exitX=1;exitY=0.5;exitDx=0;exitDy=0;entryX=0;entryY=0.5;entryDx=0;entryDy=0;" edge="1" parent="1" source="3" target="16">
                    <mxGeometry relative="1" as="geometry"/>
                </mxCell>
                <mxCell id="3" value="&lt;div&gt;Factory 1:&lt;/div&gt;&lt;div&gt;--------------------&lt;/div&gt;&lt;div&gt;SportCarFactory&lt;/div&gt;&lt;div&gt;concrete=struct&lt;/div&gt;&lt;div&gt;--------------------&lt;/div&gt;&lt;div&gt;define 2 methods:&lt;/div&gt;&lt;div&gt;MakeSedan() Sedan&lt;/div&gt;&lt;div&gt;MakeSUV() SUV&lt;/div&gt;" style="rounded=0;whiteSpace=wrap;html=1;" parent="1" vertex="1">
                    <mxGeometry x="410" y="50" width="120" height="120" as="geometry"/>
                </mxCell>
                <mxCell id="18" style="html=1;exitX=1;exitY=0.5;exitDx=0;exitDy=0;entryX=0;entryY=0.5;entryDx=0;entryDy=0;" edge="1" parent="1" source="7" target="13">
                    <mxGeometry relative="1" as="geometry"/>
                </mxCell>
                <mxCell id="19" style="html=1;exitX=1;exitY=0.5;exitDx=0;exitDy=0;entryX=0;entryY=0.5;entryDx=0;entryDy=0;" edge="1" parent="1" source="7" target="16">
                    <mxGeometry relative="1" as="geometry"/>
                </mxCell>
                <mxCell id="7" value="&lt;div&gt;Factory 2:&lt;/div&gt;&lt;div&gt;--------------------&lt;/div&gt;&lt;div&gt;LuxuryCarFactory&lt;/div&gt;&lt;div&gt;concrete=struct&lt;/div&gt;&lt;div&gt;--------------------&lt;/div&gt;&lt;div&gt;define 2 methods:&lt;/div&gt;&lt;div&gt;MakeSedan() Sedan&lt;/div&gt;&lt;div&gt;MakeSUV() SUV&lt;/div&gt;" style="rounded=0;whiteSpace=wrap;html=1;" parent="1" vertex="1">
                    <mxGeometry x="410" y="275" width="120" height="140" as="geometry"/>
                </mxCell>
                <mxCell id="9" value="" style="endArrow=classic;html=1;entryX=0;entryY=0.5;entryDx=0;entryDy=0;exitX=1;exitY=0.5;exitDx=0;exitDy=0;edgeStyle=orthogonalEdgeStyle;curved=1;" parent="1" source="2" target="7" edge="1">
                    <mxGeometry width="50" height="50" relative="1" as="geometry">
                        <mxPoint x="430" y="270" as="sourcePoint"/>
                        <mxPoint x="480" y="220" as="targetPoint"/>
                    </mxGeometry>
                </mxCell>
                <mxCell id="10" value="Client" style="rounded=0;whiteSpace=wrap;html=1;" vertex="1" parent="1">
                    <mxGeometry x="10" y="210" width="120" height="60" as="geometry"/>
                </mxCell>
                <mxCell id="13" value="&lt;div&gt;SUV interface&lt;/div&gt;&lt;div&gt;?&lt;/div&gt;&lt;div&gt;---------------------&lt;/div&gt;&lt;div&gt;behaviour:&lt;/div&gt;&lt;div&gt;Offroad()&lt;/div&gt;&lt;div&gt;&lt;/div&gt;" style="rounded=0;whiteSpace=wrap;html=1;" vertex="1" parent="1">
                    <mxGeometry x="650" y="135" width="90" height="90" as="geometry"/>
                </mxCell>
                <mxCell id="16" value="&lt;div&gt;Sedan interface&lt;/div&gt;&lt;div&gt;?&lt;/div&gt;&lt;div&gt;---------------------&lt;/div&gt;&lt;div&gt;behaviour:&lt;/div&gt;&lt;div&gt;Drive()&lt;/div&gt;&lt;div&gt;&lt;/div&gt;&lt;div&gt;&lt;/div&gt;" style="rounded=0;whiteSpace=wrap;html=1;" vertex="1" parent="1">
                    <mxGeometry x="650" y="300" width="90" height="90" as="geometry"/>
                </mxCell>
                <mxCell id="20" value="&lt;div&gt;SportySUV&lt;/div&gt;&lt;div&gt;concrete = struct&lt;/div&gt;&lt;div&gt;-------------------&lt;/div&gt;&lt;div&gt;method:&lt;/div&gt;&lt;div&gt;OffRoad()&lt;/div&gt;&lt;div&gt;&lt;/div&gt;&lt;div&gt;&lt;/div&gt;" style="rounded=0;whiteSpace=wrap;html=1;" vertex="1" parent="1">
                    <mxGeometry x="827" y="45" width="90" height="90" as="geometry"/>
                </mxCell>
                <mxCell id="21" value="&lt;div&gt;SportySUV&lt;/div&gt;&lt;div&gt;concrete = struct&lt;/div&gt;&lt;div&gt;-------------------&lt;/div&gt;&lt;div&gt;method:&lt;/div&gt;&lt;div&gt;OffRoad()&lt;/div&gt;&lt;div&gt;&lt;/div&gt;&lt;div&gt;&lt;/div&gt;" style="rounded=0;whiteSpace=wrap;html=1;" vertex="1" parent="1">
                    <mxGeometry x="827" y="170" width="90" height="90" as="geometry"/>
                </mxCell>
            </root>
        </mxGraphModel>
    </diagram>
</mxfile>